# xmcd
#
# Track frame offsets:
#       150
#       23879
#       83454
#       111787
#       170130
#       195664
#       227451
#
# Disc length: 3175 seconds
#
# Revision: 3
# Processed by: cddbd v1.5PL3 Copyright (c) Steve Scherf et al.
# Submitted via: MusiCat 1.1
#
DISCID=4b0c6507
DTITLE=Eric Clapton - And friends in concert - CD2 - DVD RIP by Snooker
DYEAR=1900
DGENRE=
TTITLE0=Change The World
TTITLE1=Old Love
TTITLE2=Wonderful Tonight
TTITLE3=Layla
TTITLE4=Don't Think Twice It's All Right (With Bob Dylan)
TTITLE5=Crossroads (Cross Roads Blues) (With Bob Dylan)
TTITLE6=Sunshine Of Your Love
EXTD=\n\n
EXTT0=
EXTT1=
EXTT2=
EXTT3=
EXTT4=
EXTT5=
EXTT6=
PLAYORDER=
